# xmcd CD database file
#
# Track frame offsets:
#	183
#	12720
#	28783
#	43933
#	55908
#	64333
#	75283
#	91283
#	103958
#	117008
#	130858
#	146208
#	160195
#	171883
#	187058
#	201033
#	213283
#
# Disc length: 3053 seconds
#
# Revision: 2
# Processed by: cddbd v1.5.1PL2 Copyright (c) Steve Scherf et al.
# Submitted via: CDex 1.51
#
DISCID=f70beb11
DTITLE=Various Artist - Il Dizionario Della Canzone Italiana Lo Swing
DYEAR=1990
DGENRE=Swing
TTITLE0=Paolo Conte - Via con me
TTITLE1=Sergio Caputo - Sabato Italiano
TTITLE2=Francesco de Gregori - I wish
TTITLE3=Mina - Sabato notte
TTITLE4=Giorgio Gaber - Ciao ti dirò
TTITLE5=Fred Buscaglione - Che bambola
TTITLE6=I Cetra - Voglia di swing
TTITLE7=Alberto Rabagliati - Quando canta Rabagliati
TTITLE8=Alberto Rabagliati - La scuola del ritmo
TTITLE9=Natalino Otto - Natalino studia canto
TTITLE10=Natalino Otto - Mamma volgio anch'io la fidanzata
TTITLE11=Jula de Palma - Mia vecchia Broadway
TTITLE12=Ernesto Bonino - Il giovanotto matto
TTITLE13=Trio Lescano - Dove e quando
TTITLE14=Trio Lescano - Camminando sotto la pioggia
TTITLE15=Pippo Starnazza - Se fossi milionario
TTITLE16=Billi e Romigioli - Nel Paese di Stravisky
EXTD=YEAR: 1990
EXTT0=
EXTT1=
EXTT2=
EXTT3=
EXTT4=
EXTT5=
EXTT6=
EXTT7=
EXTT8=
EXTT9=
EXTT10=
EXTT11=
EXTT12=
EXTT13=
EXTT14=
EXTT15=
EXTT16=
PLAYORDER=
